<svg width="44" height="44" viewBox="0 0 44 44" fill="none" xmlns="http://www.w3.org/2000/svg">
<circle cx="22" cy="22" r="22" fill="#491717"/>
<ellipse cx="22" cy="22.4999" rx="15" ry="15.4167" fill="#E50101"/>
<path d="M23.7231 14.6453C20.4914 15.0714 16.7208 16.7884 14.7592 19.3931C13.7462 20.7382 12.7564 23.3967 15.1467 24.0102C18.0951 24.7668 21.0155 21.6899 23.4204 20.5422C24.5369 20.0095 26.3027 19.3341 27.1307 20.6653C27.7138 21.6026 27.3839 22.7807 26.9258 23.6939C25.9169 25.7043 24.1671 27.3708 22.3105 28.6637C21.6836 29.1002 20.1193 30.2364 19.2899 29.9791C18.6562 29.7826 19.1509 29.0682 19.406 28.7766C20.0223 28.0717 20.9724 27.565 21.4024 26.7239C21.8252 25.8967 21.1802 25.1349 20.2926 25.0719C18.3567 24.9343 16.9643 27.082 16.6265 28.6788C16.4152 29.6775 16.8059 30.9687 17.9719 31.1869C19.6436 31.4997 21.4415 30.5876 22.815 29.7725C26.0452 27.8556 29.4156 25.1405 30.2 21.348C31.0216 17.3758 27.9556 14.0871 23.7231 14.6453Z" fill="#FFFEFE"/>
</svg>
