<svg width="21" height="21" viewBox="0 0 21 21" fill="none" xmlns="http://www.w3.org/2000/svg">
<g clip-path="url(#clip0_1053_1202)">
<path d="M6.67734 6.67734L0 13.3506V13.5557V13.7607L3.62168 17.3783L7.23926 21H7.44434H7.64941L14.3227 14.3227L21 7.64941V7.42383V7.19824L17.3988 3.60117L13.8018 9.53674e-07H13.5762H13.3506L6.67734 6.67734ZM18.0592 7.05059C18.2355 7.12031 18.334 7.25977 18.334 7.44023C18.334 7.6043 18.3094 7.62891 17.3373 8.60098C16.3857 9.55254 16.3365 9.59766 16.1889 9.59766C15.9592 9.59766 15.791 9.42129 15.791 9.1834C15.791 9.00703 15.7992 8.99883 16.7057 8.08828C17.7844 7.00137 17.8295 6.96445 18.0592 7.05059ZM10.4016 8.06777C11.5664 8.49023 12.5713 9.50742 12.965 10.6682C13.0799 11.0004 13.0963 11.1111 13.0963 11.4639C13.1004 11.7879 13.0799 11.9191 13.0102 12.0955C12.8338 12.5467 12.5467 12.8379 12.1078 13.0061C11.9191 13.0799 11.792 13.0963 11.4639 13.0963C11.107 13.0963 11.0004 13.0799 10.6477 12.9609C9.22031 12.4811 7.99805 11.0045 7.92832 9.67559C7.90781 9.34336 7.92012 9.22852 7.99394 8.99883C8.1457 8.50254 8.48613 8.15391 8.97832 7.98984C9.33105 7.875 9.96269 7.90781 10.4016 8.06777ZM5.09004 11.5213C5.18437 11.6156 5.20898 11.6771 5.20898 11.8166C5.20898 11.993 5.20078 12.0012 4.27793 12.9322C3.76113 13.449 3.28945 13.8961 3.22793 13.9289C2.97773 14.0643 2.66602 13.8592 2.66602 13.5598C2.66602 13.3957 2.68652 13.3752 3.6627 12.399C4.61426 11.4475 4.66348 11.4023 4.81113 11.4023C4.93008 11.4023 4.9998 11.4311 5.09004 11.5213Z" fill="#ECB7FF"/>
<path d="M1.27148 10.1351C0.0697266 10.5821 0 10.6231 0 10.9185C0 11.0784 0.213281 11.747 0.291211 11.8331C0.31582 11.8577 0.725977 11.4763 1.37402 10.8282C1.94824 10.254 2.41992 9.77002 2.41992 9.75361C2.41992 9.7044 2.43633 9.70029 1.27148 10.1351Z" fill="#ECB7FF"/>
<path d="M17.7602 12.0382C16.8045 12.9938 16.0293 13.7854 16.0375 13.7977C16.0498 13.8059 16.4559 13.6706 16.9399 13.4901C17.4238 13.3138 17.8791 13.1661 17.957 13.1661C18.2811 13.1661 18.4615 13.6009 18.2319 13.8306C18.1088 13.9536 15.9391 14.7657 15.734 14.7657C15.5945 14.7657 15.3813 14.6139 15.3813 14.5114C15.3813 14.4827 14.5404 15.2989 13.5151 16.3243C12.4897 17.3497 11.657 18.1905 11.6611 18.1987C11.6694 18.2028 13.7201 17.4522 16.2221 16.5335C19.3762 15.3686 20.8076 14.8231 20.8897 14.7534C21.0906 14.5688 21.0701 14.4827 20.2744 12.2925C19.8725 11.1932 19.5361 10.295 19.5238 10.295C19.5115 10.295 18.7199 11.0784 17.7602 12.0382Z" fill="#ECB7FF"/>
<path d="M2.26374 17.2882C2.30066 17.4318 3.48601 20.6761 3.55163 20.7991C3.69108 21.0739 3.90026 21.0657 4.7862 20.7458C5.17585 20.6023 5.49577 20.4792 5.49577 20.4669C5.49577 20.4546 4.76569 19.7163 3.87155 18.8263C2.97741 17.9362 2.25554 17.2431 2.26374 17.2882Z" fill="#ECB7FF"/>
</g>
<defs>
<clipPath id="clip0_1053_1202">
<rect width="21" height="21" fill="white"/>
</clipPath>
</defs>
</svg>
