<svg width="27" height="31" viewBox="0 0 27 31" fill="none" xmlns="http://www.w3.org/2000/svg">
<path d="M13.5 30.0834C14.4031 30.0846 15.2842 29.8043 16.0207 29.2816C16.7572 28.7589 17.3126 28.0197 17.6096 27.1667H9.39042C9.68742 28.0197 10.2428 28.7589 10.9793 29.2816C11.7158 29.8043 12.5969 30.0846 13.5 30.0834ZM23.7083 19.2713V12.5834C23.7083 7.89196 20.5219 3.93987 16.2052 2.75133C15.7779 1.67508 14.7338 0.916748 13.5 0.916748C12.2663 0.916748 11.2221 1.67508 10.7948 2.75133C6.47813 3.94133 3.29167 7.89196 3.29167 12.5834V19.2713L0.802293 21.7607C0.666606 21.8959 0.558999 22.0566 0.485666 22.2335C0.412334 22.4105 0.374724 22.6002 0.375002 22.7917V24.2501C0.375002 24.6369 0.528647 25.0078 0.802137 25.2813C1.07563 25.5548 1.44656 25.7084 1.83333 25.7084H25.1667C25.5534 25.7084 25.9244 25.5548 26.1979 25.2813C26.4714 25.0078 26.625 24.6369 26.625 24.2501V22.7917C26.6253 22.6002 26.5877 22.4105 26.5143 22.2335C26.441 22.0566 26.3334 21.8959 26.1977 21.7607L23.7083 19.2713Z" fill="#E0E0E0"/>
</svg>
