<svg width="44" height="44" viewBox="0 0 44 44" fill="none" xmlns="http://www.w3.org/2000/svg">
<circle cx="22" cy="22" r="22" fill="#0F350F"/>
<ellipse cx="21.9999" cy="21.8857" rx="14.9999" ry="14.6052" fill="#D9D9D9"/>
<path d="M18.8846 7.38028C17.1839 7.7696 17.061 7.81058 15.2988 8.60972C10.5449 10.7613 7 16.4577 7 21.9287C7 23.2606 7.4508 26.1908 7.79914 26.9489C9.04908 29.8381 9.60233 30.6988 11.508 32.5839C13.0653 34.1412 13.7824 34.6945 15.0938 35.3297C15.9954 35.7805 16.9175 36.2108 17.1429 36.2927C19.2535 37.0919 24.9704 37.0919 26.9785 36.2927C29.4579 35.3092 31.0971 34.2642 32.6749 32.6454C34.6625 30.5963 35.4412 29.3464 36.4247 26.5391C36.937 25.0638 36.9985 24.6335 36.9985 22.1336C37.019 19.142 36.8141 18.1584 35.6871 15.6381C35.0109 14.1422 34.3552 13.2201 32.9413 11.7038C29.2735 7.83107 23.9663 6.19181 18.8846 7.38028ZM22.9828 14.0398C22.9828 14.2037 22.9828 16.8675 23.0033 19.9206V25.5146L22.1632 25.5761L21.3435 25.6375V19.6952V13.7324H22.1632C22.7574 13.7324 22.9828 13.8144 22.9828 14.0398ZM17.2044 17.4617C17.4298 17.6666 17.5732 19.4698 17.3478 19.4698C17.2864 19.4698 16.9995 19.3264 16.7126 19.142C15.9135 18.6092 14.2127 18.8551 13.6185 19.5928C12.7169 20.7198 12.7579 22.0926 13.7415 23.1377C14.4791 23.9368 15.2578 24.1212 16.2823 23.7524C17.6757 23.2606 17.9421 22.6664 18.065 19.9206L18.1675 17.5232H18.9871H19.8067L19.8682 21.8263C19.9297 25.5146 19.8682 26.2932 19.5608 27.2153C19.0076 28.8546 17.8191 29.9201 16.1594 30.2275L15.4012 30.3709V29.4283C15.4012 28.5677 15.4422 28.4858 15.8725 28.4858C16.1389 28.4858 16.6921 28.1784 17.1224 27.8096C17.7576 27.2563 17.9011 26.9899 18.0035 26.0678C18.1265 24.9409 18.0445 24.8589 17.2454 25.3097C16.9585 25.4736 16.1799 25.5966 15.5037 25.5966C13.9259 25.6171 12.8808 25.0433 11.9588 23.6704C11.3031 22.7074 11.2621 22.5639 11.344 21.2115C11.385 20.1255 11.5285 19.6133 11.8768 19.101C12.512 18.2404 13.6185 17.4003 14.4381 17.1953C15.2168 17.0109 16.8356 17.1544 17.2044 17.4617ZM30.7693 17.7281C32.4905 18.8141 33.2896 20.5763 32.8184 22.2361C32.2241 24.3671 30.6668 25.6171 28.6177 25.6171C25.0933 25.6171 23.1057 21.7443 25.1548 18.8961C26.4457 17.0929 28.9456 16.5806 30.7693 17.7281Z" fill="#009700"/>
<path d="M27.2646 19.2034C26.5474 19.6542 26.0557 20.5148 26.0557 21.355C26.0557 22.7074 27.3261 23.9778 28.658 23.9778C29.3547 23.9778 30.4612 23.3426 30.7685 22.7278C31.4038 21.5599 30.748 19.2649 29.6825 18.978C28.8629 18.7731 27.8179 18.8551 27.2646 19.2034Z" fill="#009700"/>
</svg>
