<svg width="44" height="44" viewBox="0 0 44 44" fill="none" xmlns="http://www.w3.org/2000/svg">
<circle cx="22" cy="22" r="22" fill="#06221B"/>
<path fillRule="evenodd" clipRule="evenodd" d="M23.6008 12.0453C22.7976 11.8445 22.17 11.7441 21.7182 11.7441C18.4551 11.7441 15.7943 14.3798 15.7943 17.6429C15.7943 20.9061 18.4551 23.5417 21.7182 23.5417C24.9814 23.5417 27.6421 20.9061 27.6421 17.6429C27.6421 17.166 27.5919 16.6891 27.4664 16.2372L32.1603 14.9822C32.9385 17.919 32.4113 21.0316 30.7547 23.5668L22.9733 38H15.7692L20.8899 28.5619C20.915 28.5117 20.8397 28.3862 20.7644 28.3862C15.2923 27.8842 11 23.2907 11 17.7182C11 11.7943 15.8194 7 21.7433 7C22.8227 7 23.902 7.15061 24.9563 7.47692L23.6008 12.0453Z" fill="#006F54"/>
<path d="M21.6902 20.8809C23.4785 20.8809 24.9283 19.4312 24.9283 17.6428C24.9283 15.8545 23.4785 14.4048 21.6902 14.4048C19.9019 14.4048 18.4521 15.8545 18.4521 17.6428C18.4521 19.4312 19.9019 20.8809 21.6902 20.8809Z" fill="#D3DD25"/>
<path d="M27.2902 15.8107C27.1396 15.8107 27.0141 15.7354 26.9388 15.5847C26.4116 14.2544 25.4076 13.2001 24.1023 12.6228C23.9266 12.5475 23.8262 12.3216 23.9266 12.1459C24.0019 11.9702 24.2278 11.8698 24.4035 11.9702C25.8845 12.6479 27.0141 13.8277 27.6165 15.3337C27.6918 15.5345 27.5914 15.7354 27.4157 15.8107H27.2902ZM29.3485 14.9321C29.1979 14.9321 29.0724 14.8568 28.9971 14.7062C28.244 12.8487 26.8132 11.3426 24.9809 10.4892C24.8051 10.4139 24.7047 10.188 24.8051 9.98718C24.8805 9.81147 25.1064 9.71106 25.3072 9.81147C27.3153 10.7402 28.8715 12.3718 29.6999 14.4301C29.7752 14.6309 29.6748 14.8317 29.4991 14.907C29.4489 14.907 29.3987 14.9321 29.3485 14.9321ZM31.3315 14.2544C31.1809 14.2544 31.0554 14.154 30.98 14.0285C30.0011 11.5435 28.1185 9.56046 25.6586 8.48111C25.4829 8.4058 25.3825 8.17989 25.4578 8.00418C25.5331 7.82847 25.759 7.72807 25.9347 7.80337C27.24 8.3807 28.3946 9.18394 29.3736 10.2131C30.3525 11.2422 31.1307 12.422 31.6327 13.7524C31.708 13.9532 31.6076 14.154 31.4319 14.2293C31.4319 14.2544 31.3817 14.2544 31.3315 14.2544Z" fill="#D3DD25"/>
</svg>
