<svg width="44" height="44" viewBox="0 0 44 44" fill="none" xmlns="http://www.w3.org/2000/svg">
<circle cx="22" cy="22" r="22" fill="#44390D"/>
<path d="M37 22C37 30.2843 30.2843 37 22 37C13.7157 37 7 30.2843 7 22C7 13.7157 13.7157 7 22 7C30.2843 7 37 13.7157 37 22Z" fill="#FFCB00"/>
<path d="M13.5772 19.3961H15.0942L16.6965 23.3052H16.7647L18.367 19.3961H19.884V25.2143H18.6908V21.4274H18.6425L17.1369 25.1859H16.3244L14.8187 21.4132H14.7704V25.2143H13.5772V19.3961Z" fill="black"/>
<path d="M20.5989 20.4103V19.3961H25.3773V20.4103H23.5961V25.2143H22.3802V20.4103H20.5989Z" fill="black"/>
<path d="M30.9537 19.3961V25.2143H29.8912L27.36 21.5524H27.3174V25.2143H26.0873V19.3961H27.1668L29.6782 23.0552H29.7293V19.3961H30.9537Z" fill="black"/>
</svg>
