<svg width="24" height="20" viewBox="0 0 24 20" fill="none" xmlns="http://www.w3.org/2000/svg">
<path d="M19.3252 0.0655514C18.7557 0.242746 18.3364 0.591925 18.1049 1.08182C17.9985 1.3007 17.9922 1.78538 17.9735 9.7331C17.9672 14.8092 17.9797 18.2854 18.0173 18.499C18.1236 19.1244 18.5116 19.5987 19.1375 19.8541C19.4191 19.9687 19.4879 19.9739 21.0274 19.9739C22.5669 19.9739 22.6357 19.9687 22.9173 19.8541C23.2928 19.6977 23.6683 19.385 23.8561 19.0723L24 18.8274V1.15999L23.8561 0.915045C23.6683 0.602348 23.2928 0.289651 22.9173 0.133302C22.6357 0.0186468 22.5544 0.0134352 21.09 0.00301196C19.9072 -0.00741127 19.5067 0.00822357 19.3252 0.0655514Z" fill="#FF8F88"/>
<path d="M10.2129 5.09999C9.76853 5.24591 9.31169 5.62636 9.14272 6.00681C9.0113 6.29345 9.0113 6.34035 9.0113 12.4953C9.0113 18.6502 9.0113 18.6971 9.14272 18.9837C9.31795 19.3694 9.76853 19.7446 10.2316 19.8906C10.5508 19.9896 10.7135 20 12.0152 20C13.3169 20 13.4796 19.9896 13.7987 19.8906C14.2618 19.7446 14.7124 19.3694 14.8877 18.9837C15.0191 18.6971 15.0191 18.6502 15.0191 12.4953C15.0191 6.34035 15.0191 6.29345 14.8877 6.00681C14.7124 5.62115 14.2618 5.24591 13.7987 5.09999C13.4796 5.00097 13.3231 4.99054 11.9964 4.99576C10.6947 4.99576 10.5132 5.00618 10.2129 5.09999Z" fill="#FF8F88"/>
<path d="M1.20155 10.1031C0.75723 10.249 0.300389 10.6295 0.13142 11.0099C0 11.2966 0 11.3747 0 14.9968C0 18.6032 0.0062581 18.7023 0.13142 18.9785C0.287872 19.3277 0.669616 19.6716 1.09517 19.8436C1.39556 19.9687 1.45814 19.9739 2.91627 19.9895C4.32434 20.0052 4.44325 20 4.78119 19.8957C5.25054 19.7498 5.69487 19.3798 5.89513 18.9733L6.03906 18.671V11.3226L5.89513 11.0203C5.70113 10.619 5.25054 10.2438 4.78744 10.1031C4.46828 10.0041 4.31183 9.99365 2.98511 9.99886C1.68343 9.99886 1.50194 10.0093 1.20155 10.1031Z" fill="#FF8F88"/>
</svg>
