<svg width="21" height="21" viewBox="0 0 21 21" fill="none" xmlns="http://www.w3.org/2000/svg">
<path d="M20.9896 15.8578C20.8035 17.2778 20.1082 18.582 19.0327 19.5279C17.9573 20.4737 16.575 20.9968 15.1428 21C6.79321 21 0 14.2068 0 5.85723C0.00315722 4.42504 0.526289 3.04272 1.47213 1.96729C2.41798 0.891848 3.72217 0.196471 5.14223 0.010442C5.50423 -0.0296959 5.86961 0.0465206 6.18538 0.228039C6.50114 0.409557 6.75088 0.686939 6.89837 1.01996L9.01205 5.95188C9.12169 6.20787 9.16565 6.4872 9.13994 6.7645C9.11423 7.0418 9.01966 7.30829 8.86483 7.53976L7.1192 10.2108C7.90966 11.815 9.21211 13.11 10.8208 13.8913L13.4602 12.1352C13.6915 11.9793 13.9586 11.8849 14.2365 11.861C14.5143 11.8371 14.7937 11.8844 15.0481 11.9985L19.98 14.1016C20.3131 14.2491 20.5904 14.4989 20.772 14.8146C20.9535 15.1304 21.0297 15.4958 20.9896 15.8578Z" fill="#E0FF9D"/>
</svg>
